<svg xmlns="http://www.w3.org/2000/svg" xmlns:xlink="http://www.w3.org/1999/xlink" viewBox="0,0,256,256" width="64px" height="64px"><defs><clipPath id="clip-1"><path d="M0,256v-256h256v256zM123.42788,173.54182c-7.21939,-7.21939 -17.21697,-11.36 -27.42788,-11.36c-10.21091,0 -20.20848,4.14061 -27.42788,11.36l-1.66303,1.66061v3.53697l15.16364,15.16121l11.92,11.91758h4.01455l11.92,-11.92l15.16364,-15.16121v-3.53455z" id="overlayBgMask" fill="none"></path></clipPath></defs><g clip-path="url(#clip-1)" fill="none" fill-rule="nonzero" stroke="none" stroke-width="1" stroke-linecap="butt" stroke-linejoin="miter" stroke-miterlimit="10" stroke-dasharray="" stroke-dashoffset="0" font-family="none" font-weight="none" font-size="none" text-anchor="none" style="mix-blend-mode: normal"><g transform="scale(8,8)" fill="#1d7a3d"><path d="M16,3c-7.16786,0 -13,5.83214 -13,13c0,4.19194 2.00372,7.91605 5.09375,10.29492c0.4738,0.4596 1.04168,0.84522 1.69531,1.12109c1.84659,1.00866 3.96284,1.58398 6.21094,1.58398c7.16786,0 13,-5.83214 13,-13c0,-7.16786 -5.83214,-13 -13,-13zM16,5c6.08698,0 11,4.91302 11,11c0,3.15667 -1.32809,5.99041 -3.44922,7.99414c1.17365,-1.71217 1.86328,-3.78082 1.86328,-6.00781c0,-5.8733 -4.78099,-10.65625 -10.6543,-10.65625c-3.97439,0 -7.44374,2.1936 -9.27539,5.42969c1.37933,-4.4991 5.55721,-7.75977 10.51563,-7.75977zM14.75977,9.33008c4.79243,0 8.6543,3.86383 8.6543,8.65625c0,2.59506 -1.13821,4.91162 -2.9375,6.49609c0.85084,-1.30262 1.34961,-2.85464 1.34961,-4.52148c0,-4.57322 -3.72756,-8.30273 -8.30078,-8.30273c-3.01304,0 -5.65216,1.62463 -7.10742,4.03711c1.00182,-3.67317 4.3443,-6.36523 8.3418,-6.36523zM13.52539,13.6582c3.49235,0 6.30078,2.81039 6.30078,6.30273c0,1.94841 -0.87452,3.68221 -2.25391,4.83594c0.44744,-0.8858 0.66992,-1.86938 0.66992,-2.84961c0,-1.46172 -0.48258,-2.93841 -1.49219,-4.07422c-1.00961,-1.13581 -2.56413,-1.88477 -4.4668,-1.88477c-1.90267,0 -3.45524,0.74896 -4.46484,1.88477c-0.13929,0.1567 -0.26542,0.32149 -0.38477,0.49023c0.70461,-2.71202 3.1529,-4.70508 6.0918,-4.70508zM12.2832,17.98828c1.40267,0 2.3296,0.4914 2.97266,1.21484c0.64306,0.72344 0.98633,1.72686 0.98633,2.74414c0,1.01728 -0.34327,2.0207 -0.98633,2.74414c-0.64306,0.72344 -1.56999,1.21289 -2.97266,1.21289c-0.53437,0 -0.98018,-0.08885 -1.38672,-0.2168c-0.62131,-0.28405 -1.18567,-0.66475 -1.67773,-1.125c-0.57681,-0.71208 -0.89258,-1.65356 -0.89258,-2.61523c0,-1.01728 0.34327,-2.0207 0.98633,-2.74414c0.64306,-0.72344 1.56804,-1.21484 2.9707,-1.21484z"></path></g></g><g fill="#136a2c" fill-rule="nonzero" stroke="none" stroke-width="1" stroke-linecap="butt" stroke-linejoin="miter" stroke-miterlimit="10" stroke-dasharray="" stroke-dashoffset="0" font-family="none" font-weight="none" font-size="none" text-anchor="none" style="mix-blend-mode: normal"><g transform="translate(71.75758,167.0303) scale(2.42424,2.42424)" id="overlay"><path d="M10,12c-0.6,0 -1,0.2 -1.4,0.6l1.4,1.4l1.4,-1.4c-0.4,-0.4 -0.8,-0.6 -1.4,-0.6zM7.2,11.2l-1.4,-1.4c1.1,-1.2 2.6,-1.8 4.2,-1.8c1.6,0 3.1,0.6 4.2,1.8l-1.4,1.4c-1.5,-1.5 -4.1,-1.5 -5.6,0zM4.3,8.3l-1.4,-1.4c1.9,-1.9 4.4,-2.9 7.1,-2.9c2.7,0 5.2,1 7.1,2.9l-1.4,1.4c-1.6,-1.5 -3.6,-2.3 -5.7,-2.3c-2.1,0 -4.1,0.8 -5.7,2.3zM18.5,5.5c-4.7,-4.7 -12.3,-4.7 -17,0l-1.4,-1.4c2.6,-2.6 6.2,-4.1 9.9,-4.1c3.7,0 7.3,1.5 9.9,4.1z"></path></g></g><g fill="#012106" fill-rule="nonzero" stroke="none" stroke-width="1" stroke-linecap="butt" stroke-linejoin="miter" stroke-miterlimit="10" stroke-dasharray="" stroke-dashoffset="0" font-family="none" font-weight="none" font-size="none" text-anchor="none" style="mix-blend-mode: normal"><g><path d="M166.62,222.4l3.12,-5.6h1.68c0,0.42667 -0.01333,0.94 -0.04,1.54c-0.02667,0.6 -0.08,1.24 -0.16,1.92c-0.08,0.68 -0.17333,1.35333 -0.28,2.02c-0.10667,0.66667 -0.22667,1.26667 -0.36,1.8v0c-0.56,0.29333 -1.18,0.54 -1.86,0.74c-0.68,0.2 -1.36667,0.36667 -2.06,0.5c-0.69333,0.13333 -1.36,0.22667 -2,0.28c-0.64,0.05333 -1.2,0.08 -1.68,0.08v0c-2.45333,0 -4.52,-0.33333 -6.2,-1c-1.68,-0.66667 -3.05333,-1.53333 -4.12,-2.6c-1.06667,-1.06667 -1.83333,-2.26667 -2.3,-3.6c-0.46667,-1.33333 -0.7,-2.68 -0.7,-4.04v0c0,-2.64 0.38667,-5.04667 1.16,-7.22c0.77333,-2.17333 1.9,-4.04 3.38,-5.6c1.48,-1.56 3.29333,-2.76667 5.44,-3.62c2.14667,-0.85333 4.58,-1.28 7.3,-1.28v0c1.76,0 3.34,0.12667 4.74,0.38c1.4,0.25333 2.54,0.59333 3.42,1.02v0c-0.08,0.42667 -0.21333,0.97333 -0.4,1.64c-0.18667,0.66667 -0.4,1.36667 -0.64,2.1c-0.24,0.73333 -0.49333,1.45333 -0.76,2.16c-0.26667,0.70667 -0.52,1.3 -0.76,1.78v0h-1.68l-0.92,-6.04c-0.24,-0.13333 -0.64,-0.24 -1.2,-0.32c-0.56,-0.08 -1.12,-0.12 -1.68,-0.12v0c-1.54667,0 -2.96667,0.37333 -4.26,1.12c-1.29333,0.74667 -2.41333,1.8 -3.36,3.16c-0.94667,1.36 -1.68,3.00667 -2.2,4.94c-0.52,1.93333 -0.78,4.08667 -0.78,6.46v0c0,1.49333 0.21333,2.75333 0.64,3.78c0.42667,1.02667 0.98,1.86 1.66,2.5c0.68,0.64 1.42667,1.1 2.24,1.38c0.81333,0.28 1.60667,0.42 2.38,0.42v0c0.77333,0 1.44,-0.07333 2,-0.22c0.56,-0.14667 0.97333,-0.3 1.24,-0.46zM183.94,214.52l-1.68,8c0.69333,0.10667 1.36667,0.26 2.02,0.46c0.65333,0.2 1.23333,0.43333 1.74,0.7v0l-0.28,1.52h-13.32l0.28,-1.52c1.17333,-0.56 2.36,-0.94667 3.56,-1.16v0l4.8,-22.64c-0.58667,-0.10667 -1.13333,-0.26 -1.64,-0.46c-0.50667,-0.2 -0.97333,-0.43333 -1.4,-0.7v0l0.32,-1.52h5.04c1.06667,0 2.3,-0.05333 3.7,-0.16c1.4,-0.10667 2.67333,-0.16 3.82,-0.16v0c1.38667,0 2.67333,0.12 3.86,0.36c1.18667,0.24 2.2,0.62 3.04,1.14c0.84,0.52 1.5,1.20667 1.98,2.06c0.48,0.85333 0.72,1.89333 0.72,3.12v0c0,1.57333 -0.29333,3.03333 -0.88,4.38c-0.58667,1.34667 -1.44,2.51333 -2.56,3.5c-1.12,0.98667 -2.49333,1.76667 -4.12,2.34c-1.62667,0.57333 -3.46667,0.86 -5.52,0.86v0c-0.13333,0 -0.35333,0 -0.66,0c-0.30667,0 -0.64,-0.00667 -1,-0.02c-0.36,-0.01333 -0.70667,-0.02667 -1.04,-0.04c-0.33333,-0.01333 -0.59333,-0.03333 -0.78,-0.06zM189.42,199.48v0c-0.53333,0 -0.98,0.02667 -1.34,0.08c-0.36,0.05333 -0.68667,0.10667 -0.98,0.16v0l-2.6,12.16c0.24,0.05333 0.6,0.09333 1.08,0.12c0.48,0.02667 0.86667,0.04 1.16,0.04v0c1.14667,0 2.16,-0.20667 3.04,-0.62c0.88,-0.41333 1.62,-1 2.22,-1.76c0.6,-0.76 1.06,-1.65333 1.38,-2.68c0.32,-1.02667 0.48,-2.16667 0.48,-3.42v0c0,-0.61333 -0.07333,-1.17333 -0.22,-1.68c-0.14667,-0.50667 -0.38667,-0.94 -0.72,-1.3c-0.33333,-0.36 -0.78667,-0.63333 -1.36,-0.82c-0.57333,-0.18667 -1.28667,-0.28 -2.14,-0.28zM203.7,197.2h21.04c-0.26667,1.2 -0.6,2.44 -1,3.72c-0.4,1.28 -0.84,2.48 -1.32,3.6v0h-1.68l-0.84,-4.72h-7.48l-2.08,9.8h4.92l2.4,-3.08h1.24c-0.13333,1.30667 -0.36667,2.76 -0.7,4.36c-0.33333,1.6 -0.71333,3.09333 -1.14,4.48v0h-1.28l-1.08,-3.16h-4.92l-2.16,10.4h7.76l3.2,-5.08h1.68c0,0.48 -0.02,1.04 -0.06,1.68c-0.04,0.64 -0.09333,1.30667 -0.16,2c-0.06667,0.69333 -0.15333,1.38667 -0.26,2.08c-0.10667,0.69333 -0.22667,1.33333 -0.36,1.92v0h-21.64l0.28,-1.52c0.53333,-0.24 1.1,-0.46667 1.7,-0.68c0.6,-0.21333 1.22,-0.37333 1.86,-0.48v0l4.8,-22.64c-0.53333,-0.10667 -1.06667,-0.26 -1.6,-0.46c-0.53333,-0.2 -1.01333,-0.43333 -1.44,-0.7v0z"></path></g></g></svg>